<?xml version="1.0" encoding="UTF-8" standalone="no"?>
<!-- Created with Inkscape (http://www.inkscape.org/) -->

<svg
   width="115.32941mm"
   height="118.30878mm"
   viewBox="0 0 115.32941 118.30878"
   version="1.1"
   id="svg5"
   inkscape:version="1.1 (c68e22c387, 2021-05-23)"
   sodipodi:docname="Logo de Canarias Oculta.svg"
   xmlns:inkscape="http://www.inkscape.org/namespaces/inkscape"
   xmlns:sodipodi="http://sodipodi.sourceforge.net/DTD/sodipodi-0.dtd"
   xmlns="http://www.w3.org/2000/svg"
   xmlns:svg="http://www.w3.org/2000/svg">
  <sodipodi:namedview
     id="namedview7"
     pagecolor="#ffffff"
     bordercolor="#666666"
     borderopacity="1.0"
     inkscape:pageshadow="2"
     inkscape:pageopacity="0.0"
     inkscape:pagecheckerboard="0"
     inkscape:document-units="mm"
     showgrid="false"
     inkscape:zoom="1.0482005"
     inkscape:cx="216.08461"
     inkscape:cy="230.39485"
     inkscape:window-width="1920"
     inkscape:window-height="1017"
     inkscape:window-x="-8"
     inkscape:window-y="-8"
     inkscape:window-maximized="1"
     inkscape:current-layer="layer1"
     fit-margin-top="0"
     fit-margin-left="0"
     fit-margin-right="0"
     fit-margin-bottom="0" />
  <defs
     id="defs2" />
  <g
     inkscape:label="Capa 1"
     inkscape:groupmode="layer"
     id="layer1"
     transform="translate(-52.009392,-33.583253)">
    <path
       style="fill:#ffd511;fill-opacity:1;stroke:#000000;stroke-width:0;stroke-miterlimit:4;stroke-dasharray:none"
       d="m 617.69309,237.06208 c -3.21141,-2.44285 -11.63081,-11.8656 -18.70979,-20.93943 -30.51909,-39.11937 -67.69765,-68.60599 -106.53176,-84.49122 l -11.46805,-4.69104 12.14265,-0.0115 c 27.16545,-0.0259 54.55716,8.50859 79.60175,24.80156 11.10235,7.22272 35.09626,31.6217 43.17219,43.90104 3.66028,5.56537 8.98937,14.67235 11.84245,20.23773 4.24513,8.28082 5.08014,11.16029 4.59692,15.85215 -1.11051,10.7823 -5.42475,12.35547 -14.64636,5.34076 z"
       id="path5328"
       transform="scale(0.26458333)" />
    <path
       style="fill:#ffd511;fill-opacity:1;stroke:#000000;stroke-width:0;stroke-miterlimit:4;stroke-dasharray:none"
       d=""
       id="path6368"
       transform="scale(0.26458333)" />
    <path
       style="fill:#ffd511;fill-opacity:1;stroke:#000000;stroke-width:0;stroke-miterlimit:4;stroke-dasharray:none"
       d=""
       id="path6407"
       transform="scale(0.26458333)" />
    <path
       style="fill:#ffd511;fill-opacity:1;stroke:#000000;stroke-width:0;stroke-miterlimit:4;stroke-dasharray:none"
       d="m 236.1069,240.82789 c 0,-2.63626 15.69782,-24.46722 23.67084,-32.91905 12.60344,-13.3603 24.34287,-21.93465 41.76451,-30.50433 22.7159,-11.17392 47.66209,-16.9138 72.85584,-16.76343 17.57106,0.10487 24.33747,1.50884 29.05521,6.02871 10.63469,10.18869 1.21355,15.51299 -35.80112,20.23277 -46.08534,5.8764 -90.34932,23.55925 -125.13666,49.99039 -3.52474,2.67807 -6.40862,4.44879 -6.40862,3.93494 z"
       id="path6446"
       transform="scale(0.26458333)" />
    <path
       style="fill:#ffd511;fill-opacity:1;stroke:#000000;stroke-width:0;stroke-miterlimit:4;stroke-dasharray:none"
       d="M 237.65941,488.46076 C 223.8787,467.57195 215.88582,445.51 213.08683,420.63559 c -2.71136,-24.09565 2.18299,-53.30049 13.2057,-78.79904 8.61708,-19.93368 11.57254,-24.19646 18.64965,-26.89924 5.56664,-2.12592 6.36025,-2.15071 8.2531,-0.25787 3.17238,3.17238 2.44502,16.07866 -1.69648,30.10261 -10.62258,35.97013 -12.76135,48.24824 -13.66372,78.43957 -0.77499,25.92973 0.493,41.57456 5.1105,63.055 1.42337,6.62146 2.40186,12.22512 2.17442,12.45256 -0.22744,0.22745 -3.58471,-4.39334 -7.46059,-10.26842 z"
       id="path6524"
       transform="scale(0.26458333)" />
    <path
       style="fill:#ffd511;fill-opacity:1;stroke:#000000;stroke-width:0;stroke-miterlimit:4;stroke-dasharray:none"
       d="m 435.78589,573.29949 c -29.28663,-3.56729 -60.76506,-16.77997 -83.4548,-35.0291 -11.01957,-8.86294 -14.20447,-20.33624 -6.20267,-22.34456 4.75439,-1.19328 19.39328,3.67781 36.95493,12.29677 19.38503,9.51383 41.89794,17.30968 62.77737,21.73876 13.72966,2.91243 21.01223,3.55658 47.20457,4.17529 l 30.97034,0.73158 -7.62579,3.85605 c -23.0838,11.67251 -55.83958,17.5941 -80.62395,14.57521 z"
       id="path6676"
       transform="scale(0.26458333)" />
    <path
       style="fill:#0077c8;fill-opacity:1;stroke:#000000;stroke-width:0;stroke-miterlimit:4;stroke-dasharray:none"
       d="m 480.98349,544.93711 c -24.01116,-2.49778 -32.38427,-5.61402 -37.96348,-14.12897 -2.04118,-3.11524 -2.02575,-3.53184 0.22282,-6.01648 3.94657,-4.36092 12.178,-5.6847 34.36771,-5.52704 49.13408,0.3491 88.08773,-7.91779 126.20048,-26.78275 8.84383,-4.37751 16.32155,-7.71726 16.61713,-7.42168 0.9163,0.9163 -10.43529,13.76268 -19.15747,21.68016 -24.30868,22.06598 -53.35706,34.78838 -87.40904,38.28277 -15.03911,1.54331 -17.27172,1.53746 -32.87815,-0.086 z"
       id="path6715"
       transform="scale(0.26458333)" />
    <path
       style="fill:#0077c8;fill-opacity:1;stroke:#000000;stroke-width:0;stroke-miterlimit:4;stroke-dasharray:none"
       d="M 351.45314,563.40288 C 301.46156,544.1452 268.11842,504.96357 254.90795,449.9523 c -3.44393,-14.34127 -3.38949,-22.77525 0.17938,-27.78726 7.05603,-9.90927 11.69308,-3.87376 28.20682,36.71357 14.49336,35.62164 31.24753,60.7913 58.94466,88.55211 10.54996,10.57422 18.76247,19.19617 18.25001,19.1599 -0.51245,-0.0363 -4.57851,-1.47075 -9.03568,-3.18774 z"
       id="path6939"
       transform="scale(0.26458333)" />
    <path
       style="fill:#0077c8;fill-opacity:1;stroke:#000000;stroke-width:0;stroke-miterlimit:4;stroke-dasharray:none"
       d="m 196.8229,377.09646 c -2.55692,-47.1866 14.39095,-89.29207 48.82406,-121.29899 21.14976,-19.65952 38.70536,-30.07744 47.80718,-28.36992 11.03442,2.07007 7.55012,8.74675 -17.55501,33.63923 -11.22584,11.13075 -23.92719,24.18333 -28.22521,29.00572 -16.84556,18.90074 -35.88986,51.91685 -45.91674,79.60345 -4.39799,12.1439 -4.6572,12.53373 -4.93428,7.42051 z"
       id="path6978"
       transform="scale(0.26458333)" />
    <path
       style="fill:#0077c8;fill-opacity:1;stroke:#000000;stroke-width:0;stroke-miterlimit:4;stroke-dasharray:none"
       d="m 501.89582,172.51738 c -43.70392,-15.92308 -58.48481,-19.84047 -86.47664,-22.91896 -13.22416,-1.45437 -51.62419,-0.86591 -63.2826,0.96977 -4.52483,0.71246 -4.41322,0.56162 2.67116,-3.61006 25.85314,-15.22378 61.89525,-21.99755 92.97083,-17.47297 25.89698,3.77057 59.7243,17.97464 72.76638,30.55456 6.27723,6.05478 7.12631,7.49943 6.74591,11.47759 -0.42597,4.4547 -0.57788,4.55762 -7.18108,4.86466 -4.77962,0.22224 -10.08859,-0.9042 -18.21396,-3.86459 z"
       id="path7017"
       transform="scale(0.26458333)" />
  </g>
</svg>
